# xmcd
#
# Track frame offsets: 
#        150
#        19370
#        38453
#        53547
#        68584
#        87047
#        109636
#        127125
#
# Disc length: 1884 seconds
#
# Revision: 0
# Processed by: cddbd v1.5.2PL0 Copyright (c) Steve Scherf et al.
# Submitted via: ExactAudioCopy v0.99pb4
#
DISCID=5b075a08
DTITLE=Armaggedon - Imperium Wird Durch das Blut Wieder Aufleben
DYEAR=2005
DGENRE=Black Metal
TTITLE0=Darkness and Hate
TTITLE1=Crushing the Bastard
TTITLE2=Open the Gates of Hell
TTITLE3=Fullmoon Apokalypse
TTITLE4=Conquerors of Imperial Hell
TTITLE5=Masturbate on the Altar of God
TTITLE6=So Cold In Transylvania
TTITLE7=The Gate of Nanna
EXTD=
EXTT0=
EXTT1=
EXTT2=
EXTT3=
EXTT4=
EXTT5=
EXTT6=
EXTT7=
PLAYORDER=
